<?xml version="1.0" standalone="no"?>
<!DOCTYPE svg PUBLIC "-//W3C//DTD SVG 20010904//EN"
 "http://www.w3.org/TR/2001/REC-SVG-20010904/DTD/svg10.dtd">
<svg version="1.0" xmlns="http://www.w3.org/2000/svg"
 width="16.000000pt" height="16.000000pt" viewBox="0 0 16.000000 16.000000"
 preserveAspectRatio="xMidYMid meet">
<metadata>
Created by potrace 1.11, written by Peter Selinger 2001-2013
</metadata>
<g transform="translate(0.000000,16.000000) scale(0.006250,-0.006250)"
fill="#000000" stroke="none">
<path d="M955 2530 c-3 -5 -2 -10 4 -10 5 0 13 5 16 10 3 6 2 10 -4 10 -5 0
-13 -4 -16 -10z"/>
<path d="M1350 2472 c0 -13 -66 -33 -84 -26 -21 8 -66 -3 -66 -16 0 -6 21 -10
48 -9 57 2 92 -8 92 -26 0 -19 -35 -29 -92 -26 -43 2 -48 0 -48 -20 0 -19 3
-21 33 -14 51 13 89 9 103 -10 9 -12 17 -14 30 -7 11 6 13 11 5 16 -16 10 -14
43 4 50 13 5 12 9 -5 26 -14 14 -18 28 -14 45 3 14 3 25 0 25 -3 0 -6 -4 -6
-8z"/>
<path d="M906 2452 c-8 -14 5 -81 18 -90 18 -13 116 -2 116 13 0 21 -29 26
-60 10 -25 -13 -29 -13 -40 0 -7 8 -9 15 -5 15 4 0 2 6 -4 14 -6 7 -9 21 -5
30 6 16 -11 23 -20 8z"/>
<path d="M1461 2413 c-30 -11 -39 -18 -30 -24 8 -4 19 -3 28 4 8 7 45 12 87
12 59 -1 71 2 62 12 -14 17 -92 15 -147 -4z"/>
<path d="M1820 2400 c0 -5 4 -10 9 -10 6 0 13 5 16 10 3 6 -1 10 -9 10 -9 0
-16 -4 -16 -10z"/>
<path d="M1563 2367 c-24 -11 -43 -26 -43 -33 0 -8 -12 -10 -39 -7 -22 3 -47
0 -57 -6 -17 -11 -15 -12 11 -7 17 3 24 3 18 0 -22 -10 -14 -22 20 -30 17 -3
45 -18 61 -31 23 -19 37 -23 60 -19 40 8 41 10 39 72 -1 29 3 56 9 60 6 4 5 9
-3 15 -20 12 -28 11 -76 -14z"/>
<path d="M1837 2358 c-5 -18 4 -48 15 -48 5 0 6 -4 3 -10 -3 -5 -20 -7 -38 -4
l-32 6 28 -26 c32 -30 49 -32 68 -10 10 12 10 20 1 35 -7 11 -8 19 -2 19 18 0
11 29 -9 40 -25 13 -28 13 -34 -2z"/>
<path d="M637 2327 c-28 -24 -34 -37 -16 -37 6 0 17 -6 25 -14 12 -12 12 -16
1 -23 -7 -4 -20 -29 -29 -55 -14 -44 -14 -49 3 -64 16 -15 17 -19 4 -37 -21
-30 -19 -37 10 -37 13 0 28 -8 34 -17 9 -17 11 -17 45 0 30 14 36 22 36 48 0
22 -5 32 -20 36 -24 6 -25 16 -5 37 21 20 19 40 -2 31 -89 -37 -80 0 11 51 11
6 22 16 24 24 4 10 -4 11 -31 6 -31 -6 -38 -3 -53 19 -13 20 -14 28 -4 40 19
23 -4 18 -33 -8z"/>
<path d="M928 2323 c-40 -3 -48 -8 -48 -24 0 -10 5 -19 10 -19 18 0 10 -22
-10 -27 -11 -3 -20 -11 -20 -18 0 -7 -7 -18 -15 -25 -25 -21 -17 -30 29 -30
26 0 48 -6 56 -15 16 -19 30 -19 30 0 0 8 9 19 20 25 29 15 25 30 -10 37 -39
7 -38 25 4 45 40 20 56 59 23 56 -12 -1 -43 -3 -69 -5z"/>
<path d="M429 2279 c-7 -18 -12 -41 -12 -51 1 -10 -2 -18 -8 -18 -14 0 -11
-22 7 -42 16 -16 16 -18 0 -24 -9 -3 -16 -12 -16 -20 0 -23 46 -16 79 11 l30
26 -25 26 c-20 21 -24 35 -22 71 4 55 -14 65 -33 21z"/>
<path d="M1161 2296 c-6 -8 -36 -17 -66 -21 -55 -6 -69 -17 -39 -29 30 -11 60
-6 82 15 38 35 109 26 97 -12 -4 -12 -1 -19 7 -20 41 -3 76 5 96 24 l23 21
-22 9 c-17 5 -25 3 -31 -8 -11 -19 -28 -20 -28 0 0 9 -9 15 -24 15 -14 0 -28
5 -31 10 -9 15 -51 12 -64 -4z"/>
<path d="M1856 2218 c-36 -51 -6 -78 43 -37 13 11 22 21 20 22 -2 1 -14 10
-25 20 -21 18 -22 18 -38 -5z"/>
<path d="M2056 2211 c-7 -11 18 -33 27 -24 4 3 7 12 7 20 0 15 -26 18 -34 4z"/>
<path d="M1020 2191 c0 -6 5 -13 10 -16 18 -11 11 -53 -12 -69 -12 -9 -34 -16
-48 -16 -28 0 -38 -6 -59 -33 -13 -16 -12 -20 7 -33 30 -21 28 -41 -8 -74 -16
-15 -30 -36 -30 -47 0 -16 -7 -18 -54 -15 l-55 4 16 34 c9 19 22 34 29 34 6 0
15 16 19 36 7 39 0 58 -11 28 -9 -25 -73 -84 -91 -84 -8 0 -11 5 -8 10 3 6 13
10 21 10 8 0 14 4 14 9 0 4 -27 9 -60 9 l-60 1 -12 -47 c-14 -57 -15 -56 14
-63 18 -4 23 -12 21 -33 -3 -38 33 -54 75 -32 38 20 49 20 68 1 21 -20 43 -19
51 3 13 32 62 104 82 118 17 12 20 11 25 -12 5 -18 1 -33 -11 -47 -13 -14 -15
-21 -5 -24 6 -3 12 -11 12 -19 0 -8 4 -14 9 -14 6 0 6 -12 0 -32 -12 -42 -12
-71 0 -63 5 3 16 -2 25 -11 32 -32 -18 -89 -136 -153 -67 -37 -83 -39 -66 -11
7 11 18 20 24 20 15 0 44 44 44 65 0 25 -34 14 -38 -12 -3 -22 -51 -41 -71
-29 -16 10 3 71 24 75 27 5 46 27 39 45 -4 11 -11 13 -31 5 -30 -11 -63 -12
-63 -1 0 4 13 13 30 19 28 10 60 56 48 69 -4 3 -20 -2 -37 -10 -16 -9 -41 -16
-55 -16 -33 0 -74 -55 -59 -79 6 -9 20 -15 32 -13 16 3 21 -2 21 -20 0 -13 -7
-32 -15 -42 -8 -11 -15 -30 -15 -43 0 -13 -7 -26 -15 -29 -18 -7 -20 -35 -4
-51 13 -13 2 -36 -12 -27 -6 3 -13 -3 -15 -13 -7 -26 -64 -61 -64 -40 0 13 -9
12 -62 -2 -35 -9 -68 -19 -74 -23 -5 -4 -30 -2 -53 3 -39 9 -45 7 -58 -11 -8
-11 -24 -20 -36 -20 -20 1 -19 3 11 30 27 25 29 30 13 30 -11 0 -22 4 -25 9
-6 9 36 67 58 83 11 7 9 189 -2 200 -4 4 -20 -4 -36 -17 -16 -14 -35 -25 -41
-25 -20 0 -65 -48 -65 -70 0 -27 9 -25 50 10 38 33 46 35 55 19 4 -6 -2 -17
-13 -25 -12 -8 -28 -21 -36 -29 -8 -8 -18 -15 -23 -15 -4 0 -20 -11 -36 -24
-24 -21 -26 -27 -17 -50 14 -39 13 -46 -10 -46 -13 0 -20 7 -20 20 0 13 -7 20
-20 20 -14 0 -20 -7 -20 -21 0 -18 -4 -20 -26 -15 -30 8 -57 -18 -48 -46 3
-10 -2 -32 -10 -50 -19 -43 -20 -172 0 -164 22 8 36 -18 24 -48 -13 -35 -13
-36 6 -36 13 0 15 -7 11 -29 -4 -16 -2 -31 3 -33 6 -2 3 -16 -5 -32 -8 -15
-15 -33 -15 -40 0 -6 -9 -22 -20 -36 -19 -24 -20 -44 -20 -477 l0 -453 134 0
134 0 6 63 c6 58 6 74 3 152 0 17 2 79 5 140 5 83 10 112 22 121 9 6 16 19 16
29 0 10 6 25 14 34 8 9 26 29 40 44 14 15 26 39 26 52 0 25 14 33 25 15 3 -6
17 -10 31 -10 13 0 24 -4 24 -9 0 -27 219 -67 234 -42 11 17 24 13 31 -10 6
-19 13 -21 66 -17 72 5 110 30 124 81 15 52 29 63 60 49 25 -12 33 -36 15 -47
-17 -10 -11 -25 10 -25 11 0 20 5 20 10 0 6 9 10 19 10 22 0 35 30 26 58 -11
36 -53 44 -260 49 -119 3 -208 9 -220 16 -11 6 -43 10 -71 9 l-52 -3 -6 35
c-4 20 -16 42 -28 50 -18 13 -19 17 -6 29 7 8 24 17 36 21 12 4 30 18 41 32
10 13 21 24 24 24 4 0 17 11 29 23 13 13 44 36 70 51 46 26 46 27 139 15 52
-6 96 -15 99 -20 3 -4 24 -15 45 -24 73 -29 115 -50 115 -57 0 -5 6 -8 12 -8
7 0 43 -15 80 -32 54 -26 72 -41 87 -70 l18 -38 6 48 c6 53 -10 125 -35 161
-9 13 -14 30 -11 37 3 8 -1 14 -11 14 -8 0 -18 11 -22 25 -3 14 -22 41 -40 61
-19 19 -34 39 -34 44 0 6 -6 10 -14 10 -17 0 -29 27 -15 35 5 4 42 15 82 26
65 19 96 20 314 17 184 -2 244 -6 248 -15 2 -7 15 -13 29 -13 14 0 27 -4 30
-8 8 -13 -26 -73 -51 -89 -61 -40 -111 -99 -121 -143 -8 -30 -8 -46 -1 -51 6
-3 8 -21 5 -40 -10 -54 5 -67 45 -38 19 13 39 23 45 21 6 -1 17 5 24 13 7 8
21 15 31 15 11 0 19 5 19 10 0 6 -5 10 -11 10 -5 0 -8 4 -5 9 3 5 15 7 25 4
13 -3 23 2 30 15 6 11 24 23 40 27 16 3 32 13 35 21 3 8 15 14 26 14 11 0 20
6 20 14 0 29 163 45 210 21 29 -15 40 -35 20 -35 -5 0 -10 -5 -10 -11 0 -6 6
-9 14 -6 8 3 20 -1 28 -10 7 -9 31 -24 53 -34 l40 -19 -45 0 c-26 0 -51 -5
-58 -12 -9 -9 -12 -9 -12 0 0 7 -12 12 -27 12 -21 0 -24 -3 -15 -12 16 -16 15
-45 -3 -99 l-15 -44 -93 -1 c-50 0 -110 -6 -132 -13 -133 -40 -147 -46 -163
-73 -9 -16 -20 -28 -24 -28 -4 0 -8 -7 -8 -15 0 -8 -7 -15 -16 -15 -8 0 -22
-7 -30 -15 -20 -19 -34 -19 -34 0 0 8 8 15 18 15 14 0 17 8 17 40 0 32 -3 40
-17 40 -11 0 -18 8 -18 20 0 11 5 20 10 20 6 0 10 5 10 10 0 6 -9 10 -20 10
-13 0 -20 7 -20 20 0 11 -2 20 -5 20 -12 0 -55 -24 -55 -32 0 -4 -8 -8 -17 -8
-14 0 -13 -5 9 -23 14 -12 31 -39 38 -59 6 -20 17 -42 25 -48 7 -6 16 -29 20
-51 4 -21 11 -39 17 -39 6 0 8 -7 4 -15 -6 -17 39 -125 53 -125 19 0 41 13 41
24 0 6 -12 24 -26 39 -14 15 -24 35 -23 45 1 9 -2 26 -6 36 -6 13 -3 23 8 31
10 7 17 20 17 29 0 12 9 16 35 16 19 0 35 -4 35 -10 0 -5 8 -10 18 -10 16 1
16 2 0 13 -19 15 -13 67 8 67 8 0 14 5 14 10 0 38 45 -27 53 -75 4 -32 15 -43
47 -50 17 -4 30 -10 30 -14 0 -10 -46 -31 -65 -31 -8 0 -15 -4 -15 -10 0 -15
79 -12 125 5 28 10 33 14 18 15 -28 0 -29 11 -3 28 14 8 20 9 20 1 0 -6 16 -1
37 11 27 16 38 18 44 9 12 -20 90 -16 139 8 76 36 89 37 110 11 11 -12 24 -29
30 -36 6 -6 20 -12 32 -12 16 0 19 -4 14 -23 -4 -15 1 -27 16 -38 13 -10 23
-33 28 -63 8 -52 -9 -226 -22 -226 -4 0 -8 -18 -8 -41 0 -32 3 -40 15 -35 20
7 20 -27 0 -44 -17 -14 -20 -40 -5 -40 7 0 7 -6 0 -19 -5 -11 -10 -29 -10 -40
0 -19 6 -21 70 -21 l70 0 0 655 c0 568 -2 655 -15 655 -8 0 -23 10 -34 21 -15
16 -18 26 -10 40 11 22 -25 99 -47 99 -21 0 -38 -38 -23 -56 9 -11 8 -18 -6
-34 -17 -19 -20 -19 -42 -5 -19 13 -26 13 -43 3 -11 -7 -20 -16 -20 -20 0 -5
-4 -8 -8 -8 -4 0 -9 15 -10 33 -1 17 -5 39 -8 49 -2 9 0 19 6 23 6 3 7 12 3
18 -4 6 -9 27 -13 47 -5 32 -8 35 -43 38 -31 3 -38 0 -46 -21 -10 -26 -41 -44
-41 -25 0 9 -3 9 -12 0 -17 -17 -51 -16 -45 2 4 9 -3 16 -19 20 -20 5 -24 12
-24 44 0 21 -4 42 -9 48 -5 5 -12 29 -16 55 -6 41 -5 46 18 56 14 7 26 23 29
38 3 14 3 23 0 20 -7 -7 -52 35 -52 50 0 6 -9 18 -19 27 -15 13 -18 25 -14 57
5 37 3 41 -21 47 -29 7 -30 8 -16 34 14 25 0 32 -49 24 -25 -4 -41 -12 -41
-20 0 -8 5 -14 10 -14 19 0 10 -30 -14 -46 -14 -8 -26 -25 -28 -37 -3 -25 -37
-36 -49 -16 -4 7 -3 21 2 30 5 10 9 30 9 44 0 19 -5 26 -17 24 -39 -6 -114 55
-99 79 3 5 -2 21 -10 37 -18 34 -12 52 18 64 42 16 -9 25 -55 10 -23 -8 -50
-12 -60 -11 -19 4 -57 -24 -57 -41 0 -5 7 -15 16 -22 21 -15 11 -50 -21 -71
-20 -13 -35 -14 -87 -6 -37 6 -67 6 -73 1 -12 -12 -88 -12 -101 1 -14 14 -48
2 -63 -22 -16 -26 -6 -36 17 -15 24 22 41 21 61 -1 9 -11 23 -22 31 -25 10 -4
9 -6 -5 -4 -11 1 -36 -11 -56 -26 -20 -15 -43 -27 -52 -27 -10 0 -17 -6 -17
-14 0 -8 -5 -18 -11 -21 -6 -4 -9 2 -8 17 4 46 -1 69 -18 74 -64 21 -74 27
-71 48 2 16 9 20 29 18 22 -2 27 3 37 37 7 21 19 44 27 51 8 7 15 19 15 27 0
11 -12 13 -61 7 -56 -6 -61 -5 -66 15 -5 21 -23 30 -23 12z m100 -81 c0 -5 -4
-10 -10 -10 -5 0 -10 5 -10 10 0 6 5 10 10 10 6 0 10 -4 10 -10z m464 -116
c19 -18 21 -51 4 -56 -10 -4 -8 -9 3 -21 9 -9 19 -13 22 -10 4 3 20 0 37 -7
39 -16 26 -33 -21 -28 -24 2 -37 10 -44 26 -9 20 -34 28 -74 22 -10 -1 -11 4
-6 17 4 10 10 27 13 38 10 36 40 45 66 19z m-524 -14 c0 -4 -14 -13 -31 -19
-40 -14 -39 -14 -39 2 0 7 12 18 28 23 28 11 42 9 42 -6z m386 -87 c-6 -14 -9
-15 -16 -4 -11 19 -1 46 13 32 5 -5 7 -18 3 -28z m-146 -24 c0 -5 -5 -9 -12
-9 -6 0 -22 -10 -35 -22 -13 -12 -23 -16 -23 -10 0 7 -7 12 -15 12 -20 0 -19
5 6 34 18 21 25 23 50 14 16 -5 29 -14 29 -19z m615 -16 c53 -44 62 -68 17
-44 -28 15 -37 -14 -13 -38 19 -19 19 -20 0 -37 -15 -13 -17 -19 -7 -26 8 -5
18 -1 25 9 23 31 25 5 2 -30 -34 -52 -80 -80 -112 -68 -14 5 -28 15 -32 21 -4
6 -18 15 -31 20 -21 8 -23 12 -13 29 8 11 9 26 4 37 -5 11 -14 39 -21 63 -11
41 -10 46 9 62 21 16 23 16 46 -7 26 -26 51 -28 59 -5 3 9 0 11 -8 6 -10 -6
-12 -4 -7 9 4 10 7 24 7 32 0 23 15 17 75 -33z m-850 -23 c0 -10 -8 -14 -24
-12 -30 3 -35 7 -26 22 10 16 50 8 50 -10z m454 -1 c17 -6 31 -15 31 -20 0 -5
8 -9 18 -9 28 0 34 -11 15 -32 -18 -20 -11 -34 21 -40 30 -5 15 -23 -19 -23
-25 0 -30 -4 -30 -25 0 -31 -21 -36 -77 -16 -24 8 -37 15 -29 16 10 0 12 10 7
38 -3 20 -8 52 -11 70 -5 27 -2 34 17 42 13 5 23 9 24 9 1 1 15 -4 33 -10z
m-299 -29 c0 -11 -6 -20 -14 -20 -14 0 -31 -29 -21 -38 2 -3 10 0 17 5 7 6 27
14 44 17 29 7 31 5 27 -18 -4 -18 0 -28 11 -32 27 -10 17 -28 -36 -63 -44 -28
-54 -32 -71 -22 -15 10 -26 10 -47 1 -36 -15 -92 -9 -98 10 -3 8 -1 12 3 7 5
-4 19 0 31 8 13 8 29 12 37 9 8 -3 18 -1 22 5 3 6 -1 11 -11 11 -13 0 -12 3 6
18 12 9 25 33 29 52 5 26 13 36 29 38 12 2 22 10 22 18 0 8 5 14 10 14 6 0 10
-9 10 -20z m460 -185 c0 -9 -9 -15 -25 -15 -24 0 -32 10 -18 23 12 13 43 7 43
-8z m-350 -10 c0 -17 -43 -38 -48 -23 -5 12 18 38 34 38 8 0 14 -7 14 -15z
m630 -44 c0 -5 -9 -11 -20 -14 -20 -5 -26 3 -13 16 9 10 33 8 33 -2z m-1742
-133 c8 -8 8 -17 1 -30 -5 -10 -8 -22 -5 -26 3 -5 -4 -23 -15 -40 -23 -39 -26
-60 -4 -42 16 13 35 6 35 -15 0 -19 28 -34 51 -28 11 3 19 0 19 -6 0 -6 -13
-11 -29 -11 -23 0 -34 -8 -51 -35 -29 -46 -60 -48 -60 -3 0 25 -3 29 -12 20
-16 -16 -45 -15 -51 2 -3 7 3 28 14 45 10 17 19 43 19 56 0 24 -8 29 -42 26
-9 -1 -19 3 -23 9 -3 5 -2 10 4 10 6 0 7 7 4 17 -4 10 -2 14 4 10 6 -4 22 2
37 14 14 11 35 22 47 24 12 3 24 7 27 10 8 8 17 6 30 -7z m312 -68 c0 -5 -7
-10 -16 -10 -8 0 -12 5 -9 10 3 6 10 10 16 10 5 0 9 -4 9 -10z m-410 -183 c0
-8 -11 -19 -25 -25 -31 -14 -33 1 -3 22 27 19 28 19 28 3z m50 -66 c0 -11 -7
-26 -15 -35 -8 -8 -15 -29 -15 -46 0 -24 -6 -33 -26 -40 -34 -13 -34 -13 -34
15 0 14 7 28 15 31 8 4 15 15 15 25 0 12 10 23 25 29 14 5 25 16 25 25 0 8 2
15 5 15 3 0 5 -9 5 -19z m2355 -271 c4 -6 -5 -10 -19 -10 -14 0 -26 5 -26 10
0 6 9 10 19 10 11 0 23 -4 26 -10z m-2160 -70 c-3 -5 -15 -10 -26 -10 -10 0
-19 5 -19 10 0 6 12 10 26 10 14 0 23 -4 19 -10z m112 -72 c-3 -8 -6 -5 -6 6
-1 11 2 17 5 13 3 -3 4 -12 1 -19z"/>
<path d="M1507 1804 c-14 -14 -7 -25 13 -22 12 2 21 8 21 13 0 12 -24 18 -34
9z"/>
<path d="M1275 2171 c-25 -5 -29 -11 -27 -30 2 -13 -2 -35 -9 -47 -7 -13 -10
-26 -8 -28 2 -3 33 -2 67 1 56 5 65 9 75 31 9 20 9 26 -1 30 -6 2 -12 15 -12
28 0 26 -20 29 -85 15z"/>
<path d="M2057 2138 c18 -18 24 -19 37 -9 22 18 11 31 -27 31 l-31 0 21 -22z"/>
<path d="M1883 2113 c-24 -2 -43 -8 -43 -13 0 -5 -8 -11 -17 -13 -10 -3 2 -5
27 -6 25 -1 52 -5 60 -10 10 -7 18 -4 28 10 12 18 9 41 -6 37 -4 -1 -26 -3
-49 -5z"/>
<path d="M406 2064 c-3 -9 -6 -26 -6 -39 0 -13 -6 -25 -12 -28 -10 -3 -10 -9
1 -29 10 -20 11 -30 1 -48 -16 -30 -6 -50 26 -50 23 0 25 3 20 26 -5 19 0 35
17 57 42 57 43 61 13 53 -30 -7 -34 7 -11 38 8 10 12 23 9 27 -9 15 -52 10
-58 -7z"/>
<path d="M2250 2049 c0 -5 5 -7 10 -4 6 3 10 8 10 11 0 2 -4 4 -10 4 -5 0 -10
-5 -10 -11z"/>
<path d="M229 2017 c-9 -7 -19 -31 -22 -54 -7 -39 -5 -43 13 -43 24 0 28 -35
4 -44 -19 -7 -15 -45 7 -59 13 -8 22 -4 43 19 30 34 32 50 9 62 -12 7 -14 18
-10 40 3 16 3 33 -1 37 -4 4 -7 16 -7 28 0 25 -14 31 -36 14z"/>
<path d="M2164 1933 c-18 -3 -23 -14 -28 -56 -6 -41 -4 -54 8 -63 9 -6 16 -21
16 -33 0 -11 5 -21 10 -21 6 0 10 -9 10 -19 0 -11 -4 -23 -10 -26 -15 -9 -12
-35 4 -35 8 0 17 -6 20 -12 3 -9 10 -7 22 7 11 14 18 16 21 8 3 -7 10 -13 16
-13 5 0 7 3 4 7 -4 3 -1 11 7 17 7 6 16 22 19 36 5 20 1 28 -15 35 -13 6 -28
28 -36 52 -8 25 -21 45 -33 48 -24 8 -24 16 1 38 12 10 18 22 15 27 -6 10 -13
11 -51 3z"/>
<path d="M72 1888 c-7 -7 -12 -20 -12 -31 0 -13 6 -18 23 -15 16 2 22 10 22
27 0 28 -15 37 -33 19z"/>
<path d="M433 1823 c-18 -2 -33 -8 -33 -14 0 -5 4 -9 9 -9 17 0 21 -90 5 -122
-9 -17 -12 -37 -8 -46 21 -47 7 -112 -23 -112 -8 0 -11 -5 -7 -11 4 -6 20 -8
40 -4 28 5 34 3 34 -11 0 -10 -9 -28 -21 -40 -26 -28 -16 -48 19 -39 29 7 91
72 92 96 0 9 11 21 24 28 13 7 30 28 39 47 9 19 21 34 27 34 5 0 10 5 10 10 0
6 -12 10 -27 10 -38 0 -50 10 -49 40 0 93 -2 99 -44 116 -22 9 -40 20 -40 25
0 5 -3 8 -7 7 -5 0 -23 -3 -40 -5z m63 -98 c-23 -17 -36 -19 -36 -6 0 11 18
19 40 20 11 0 10 -3 -4 -14z m34 -43 c0 -5 -11 -14 -25 -20 -22 -10 -25 -9
-25 8 0 15 7 20 25 20 14 0 25 -4 25 -8z m4 -96 c-5 -14 -44 -29 -53 -21 -6 7
31 34 46 35 7 0 10 -6 7 -14z"/>
<path d="M54 1809 c-3 -6 0 -17 8 -25 13 -13 16 -13 27 0 7 8 10 20 6 26 -8
13 -32 13 -41 -1z"/>
<path d="M147 1770 c-16 -16 -17 -21 -6 -42 10 -17 14 -19 16 -8 3 12 14 15
43 12 45 -5 56 14 13 21 -21 3 -19 4 7 3 19 -1 34 4 32 9 -2 6 -15 9 -29 8
-14 -1 -33 2 -42 6 -11 6 -22 2 -34 -9z"/>
<path d="M2365 1770 c-3 -5 -1 -10 4 -10 6 0 11 5 11 10 0 6 -2 10 -4 10 -3 0
-8 -4 -11 -10z"/>
<path d="M33 1724 c-17 -34 -17 -36 0 -45 21 -12 22 -33 1 -64 -16 -25 -16
-25 13 -25 38 0 62 40 66 114 l4 56 -34 0 c-28 0 -36 -5 -50 -36z"/>
<path d="M2364 1686 c-6 -15 8 -77 33 -144 11 -29 21 -42 32 -40 22 4 23 102
2 143 -26 49 -57 68 -67 41z"/>
<path d="M2305 1661 c-3 -5 -1 -12 5 -16 5 -3 10 1 10 9 0 18 -6 21 -15 7z"/>
<path d="M2145 1640 c4 -6 11 -8 16 -5 14 9 11 15 -7 15 -8 0 -12 -5 -9 -10z"/>
<path d="M2222 1619 c-11 -16 -9 -19 8 -19 11 0 20 6 20 14 0 24 -15 26 -28 5z"/>
<path d="M2500 1571 c0 -16 27 -31 44 -25 23 9 20 21 -6 28 -31 8 -38 7 -38
-3z"/>
<path d="M0 1513 l1 -48 30 33 c24 27 28 36 18 48 -6 8 -20 14 -30 14 -16 0
-19 -8 -19 -47z"/>
<path d="M2350 1425 c0 -8 5 -15 10 -15 6 0 10 7 10 15 0 8 -4 15 -10 15 -5 0
-10 -7 -10 -15z"/>
<path d="M480 829 c0 -5 5 -7 10 -4 6 3 10 8 10 11 0 2 -4 4 -10 4 -5 0 -10
-5 -10 -11z"/>
<path d="M1243 773 c-41 -4 -43 -5 -43 -38 0 -18 -4 -35 -8 -37 -5 -1 -11 -19
-15 -39 -5 -33 -2 -40 28 -63 34 -28 38 -58 9 -82 -7 -5 -16 -23 -20 -39 l-7
-28 26 19 c15 10 27 25 27 33 0 8 10 25 22 38 14 15 17 23 8 23 -9 0 -4 10 12
28 21 21 28 41 33 95 5 43 13 71 21 74 8 3 11 9 8 14 -5 9 -19 9 -101 2z"/>
<path d="M1143 91 c-34 -29 -30 -67 8 -80 37 -13 209 -15 209 -3 0 17 -67 70
-108 86 -54 21 -82 20 -109 -3z"/>
<path d="M1735 102 c-16 -2 -49 -12 -72 -23 -24 -10 -47 -19 -53 -19 -5 0 -10
-4 -10 -8 0 -5 -11 -14 -25 -20 -14 -6 -25 -16 -25 -22 0 -14 156 -13 182 1
15 8 22 8 28 -1 5 -8 10 0 15 21 3 19 9 41 11 50 5 20 -10 26 -51 21z"/>
</g>
</svg>
