<?xml version="1.0" standalone="no"?>
<!DOCTYPE svg PUBLIC "-//W3C//DTD SVG 20010904//EN"
 "http://www.w3.org/TR/2001/REC-SVG-20010904/DTD/svg10.dtd">
<svg version="1.0" xmlns="http://www.w3.org/2000/svg"
 width="16.000000pt" height="16.000000pt" viewBox="0 0 16.000000 16.000000"
 preserveAspectRatio="xMidYMid meet">
<metadata>
Created by potrace 1.11, written by Peter Selinger 2001-2013
</metadata>
<g transform="translate(0.000000,16.000000) scale(0.001843,-0.001843)"
fill="#000000" stroke="none">
<path d="M3898 8674 c-2 -1 -46 -5 -98 -8 -88 -7 -125 -11 -190 -21 -14 -3
-50 -7 -80 -11 -30 -3 -58 -8 -62 -11 -8 -4 -23 -8 -79 -17 -65 -11 -89 -16
-114 -26 -14 -5 -25 -7 -25 -5 0 2 -11 0 -25 -5 -14 -5 -37 -12 -50 -14 -14
-3 -71 -19 -127 -37 -57 -18 -105 -33 -108 -34 -3 0 -36 -13 -75 -27 -88 -34
-129 -49 -132 -49 -1 0 -34 -16 -73 -35 -39 -19 -75 -34 -80 -34 -6 0 -28 -11
-50 -25 -22 -14 -40 -22 -40 -18 0 5 -4 4 -8 -2 -4 -5 -35 -23 -69 -39 -35
-16 -63 -32 -63 -36 0 -3 -12 -11 -27 -17 -31 -13 -85 -44 -153 -87 -87 -55
-215 -140 -220 -146 -3 -3 -21 -17 -40 -30 -19 -13 -38 -29 -42 -35 -5 -6 -8
-6 -8 0 0 6 -3 6 -8 0 -4 -6 -27 -26 -52 -45 -25 -19 -50 -39 -56 -45 -6 -5
-29 -23 -50 -40 -161 -125 -554 -501 -554 -530 0 -18 50 -53 85 -59 34 -6 51
-21 36 -30 -6 -4 -34 5 -62 19 -68 35 -80 37 -109 15 -16 -12 -24 -28 -25 -54
-1 -37 1 -39 56 -50 8 -2 21 -6 29 -9 18 -7 246 -77 275 -84 11 -3 27 -7 35
-10 8 -3 24 -8 35 -10 11 -2 27 -6 35 -10 40 -17 59 1 40 38 -11 19 -29 26
-84 32 -16 2 -40 14 -53 27 -28 27 -17 38 19 19 13 -7 28 -14 34 -15 6 -1 35
-13 65 -27 30 -13 81 -35 114 -48 33 -13 62 -27 63 -31 2 -5 10 -8 18 -8 7 0
39 -11 71 -25 67 -30 86 -28 152 18 53 36 291 227 291 233 0 2 -16 26 -36 54
l-36 50 41 -19 c23 -10 44 -21 48 -24 19 -20 43 -10 233 96 111 61 278 166
307 193 35 33 46 86 21 98 -10 4 -10 7 -1 12 7 3 -2 28 -28 74 -21 38 -39 74
-39 79 0 5 -3 11 -7 13 -15 6 -62 107 -54 113 5 3 25 -10 43 -27 38 -36 145
-132 193 -173 17 -14 35 -25 41 -25 14 0 64 45 65 60 3 19 4 25 10 35 3 6 7
30 8 55 1 25 6 49 11 54 13 13 30 -28 32 -76 1 -29 8 -49 21 -60 29 -26 37
-22 37 17 0 28 4 35 20 35 14 0 22 -10 28 -32 7 -26 15 -34 42 -39 19 -4 42
-17 51 -28 10 -12 23 -19 31 -16 7 2 24 6 38 9 14 2 48 10 75 16 28 6 59 13
70 15 36 7 100 17 125 20 14 2 36 6 50 9 104 20 694 29 925 13 66 -5 148 -10
182 -11 l63 -4 74 77 c40 42 95 99 121 126 109 115 431 449 448 464 9 8 17 29
17 46 0 30 -2 31 -62 45 -35 8 -70 16 -78 18 -8 2 -24 5 -35 7 -11 2 -63 13
-115 25 -52 12 -104 23 -115 25 -11 2 -36 7 -55 10 -141 25 -333 54 -405 61
-145 14 -158 15 -166 3 -6 -10 -11 -10 -22 0 -12 9 -85 12 -296 10 -155 -1
-282 -3 -283 -5z m1382 -280 c0 -15 -5 -24 -12 -22 -16 6 -18 48 -1 48 7 0 13
-11 13 -26z m-1309 -117 c6 -10 5 -33 -3 -62 -11 -41 -15 -46 -38 -43 -19 2
-28 12 -37 38 -10 32 -9 37 14 61 27 29 50 32 64 6z m-1012 -181 c1 -5 -2 -6
-5 -3 -4 3 -15 2 -25 -3 -19 -11 -23 -7 -32 30 -5 20 -1 28 16 35 19 9 24 6
34 -20 6 -16 12 -34 12 -39z m923 12 c-5 -20 -6 -20 -18 -4 -7 10 -10 24 -7
32 9 23 32 -3 25 -28z m-866 -13 c1 -15 -3 -25 -12 -25 -14 0 -19 31 -7 43 12
13 18 7 19 -18z m2012 -52 c-2 -10 -14 -19 -28 -21 l-25 -4 20 20 c25 26 37
27 33 5z m-1890 -31 c7 -5 10 -16 6 -26 -6 -15 -8 -14 -25 5 -11 12 -19 24
-19 26 0 6 25 3 38 -5z m588 -162 c0 -35 -21 -47 -36 -20 -8 15 -6 22 12 34
12 9 23 16 23 16 1 0 1 -13 1 -30z m-836 3 c0 -8 -12 -13 -30 -13 -26 0 -29 2
-18 14 16 17 48 17 48 -1z m-1352 -520 c-2 -19 -7 -23 -23 -18 -11 3 -31 8
-45 11 -51 11 -36 30 24 31 42 1 45 -1 44 -24z m-174 -212 c8 -12 -20 -22 -40
-14 -13 5 -13 7 -2 14 17 11 35 11 42 0z"/>
<path d="M4858 7651 c-34 -33 -52 -81 -30 -81 5 0 17 -8 28 -19 11 -10 64 -40
117 -66 110 -53 143 -55 183 -8 34 39 54 106 37 122 -17 16 -16 36 2 55 27 26
-23 30 -79 7 -60 -26 -67 -26 -152 2 l-69 23 -37 -35z"/>
<path d="M5277 7610 c-19 -22 -13 -46 15 -61 15 -8 24 -5 43 13 l24 23 -21 22
c-26 28 -39 29 -61 3z"/>
<path d="M5432 7507 c-32 -34 -28 -52 9 -51 37 1 50 20 38 52 -11 28 -20 28
-47 -1z"/>
<path d="M3824 7460 c-64 -65 -79 -117 -47 -170 20 -35 53 -50 118 -57 45 -4
52 -2 76 24 23 25 59 99 59 122 0 20 -61 72 -100 86 -57 20 -82 19 -106 -5z"/>
<path d="M5435 7323 c1 -47 18 -52 49 -16 35 39 32 51 -12 51 -38 1 -38 0 -37
-35z"/>
<path d="M5078 7181 c-5 -14 -12 -28 -16 -31 -4 -3 -23 -31 -42 -62 -19 -32
-38 -58 -42 -58 -4 0 -35 16 -69 36 -55 33 -67 36 -111 31 -63 -8 -107 -33
-132 -76 -29 -50 -21 -106 35 -228 22 -49 104 -137 118 -128 5 3 11 1 13 -4 5
-13 96 -22 104 -10 4 7 10 6 19 -1 15 -12 16 -10 79 83 43 64 49 91 24 108 -8
5 14 37 61 88 13 14 31 36 41 48 10 13 34 25 56 29 22 3 42 8 45 10 3 2 20 6
38 9 36 6 81 32 81 47 0 9 -117 128 -126 128 -2 0 -22 -12 -44 -26 -47 -31
-52 -29 -59 27 -1 3 -15 5 -32 5 -24 0 -33 -5 -41 -25z"/>
<path d="M7369 7132 c-56 -56 -307 -300 -679 -662 -43 -41 -150 -146 -239
-233 -142 -139 -164 -156 -181 -147 -11 6 -21 15 -21 20 -1 6 -3 15 -4 20 -1
6 -3 15 -4 20 -1 11 -51 14 -52 3 -4 -39 -12 -61 -30 -75 -29 -25 -53 -23 -46
2 3 11 1 20 -4 20 -4 0 -6 7 -3 15 3 8 2 20 -2 27 -5 7 -9 19 -10 26 -5 31
-27 42 -85 42 -47 0 -63 -4 -83 -24 -15 -13 -26 -28 -26 -35 0 -6 -4 -11 -9
-11 -15 0 -33 -66 -25 -94 13 -55 108 -128 133 -103 12 12 60 18 62 8 0 -3 2
-14 4 -23 4 -23 -27 -24 -45 -3 -19 23 -25 10 -27 -68 -3 -87 -16 -103 -85
-106 -21 -1 -24 -32 -6 -60 10 -17 -24 -54 -331 -360 l-342 -340 4 -45 c3 -24
11 -55 18 -68 7 -12 12 -25 12 -28 -3 -33 101 -175 209 -284 48 -49 88 -90 88
-92 0 -2 -7 -4 -15 -4 -8 0 -15 5 -15 10 0 6 -7 10 -15 10 -8 0 -15 4 -15 8 0
4 -14 16 -31 26 l-31 18 6 -28 c7 -42 33 -130 40 -143 6 -9 -43 -84 -66 -101
-4 -3 -17 -28 -29 -55 -26 -58 -33 -115 -16 -115 7 0 56 42 108 93 95 90 349
333 461 439 54 51 241 229 438 417 86 82 98 90 125 85 17 -3 34 -7 39 -8 5 0
11 12 13 29 4 29 28 65 43 65 4 0 39 30 76 68 77 75 141 120 182 128 23 4 97
-14 166 -42 16 -6 18 -4 13 16 -4 17 2 31 28 55 41 40 64 75 70 105 6 33 9 33
43 5 29 -24 62 -33 62 -17 0 5 11 14 24 21 21 12 29 10 69 -13 l45 -27 21 27
c12 15 24 44 27 65 4 21 12 46 19 56 12 16 16 12 38 -37 13 -30 39 -95 57
-145 18 -49 36 -99 41 -110 23 -56 95 -297 105 -353 3 -14 9 -33 15 -44 5 -10
8 -18 5 -18 -3 0 0 -15 5 -32 5 -18 12 -49 15 -68 3 -19 9 -51 14 -70 5 -20
12 -51 14 -70 3 -19 7 -48 10 -65 5 -31 12 -84 23 -190 3 -33 6 -157 6 -275 1
-187 -2 -261 -17 -405 -6 -55 -24 -183 -31 -210 -1 -5 -5 -28 -10 -50 -10 -50
-14 -70 -19 -92 -8 -33 -27 -108 -31 -125 -3 -10 -7 -28 -10 -40 -9 -40 -88
-273 -96 -284 -5 -6 -6 -14 -2 -17 3 -4 1 -7 -6 -7 -7 0 -10 -4 -6 -9 3 -5 1
-12 -4 -15 -5 -3 -12 -17 -15 -31 -16 -63 -156 -331 -209 -400 -4 -5 -19 -28
-34 -50 -71 -108 -176 -256 -203 -286 -18 -19 -35 -41 -74 -94 -17 -22 -33
-42 -36 -45 -4 -3 -28 -30 -55 -60 -69 -80 -232 -246 -310 -315 -37 -33 -72
-65 -78 -70 -27 -24 -225 -174 -266 -201 -24 -16 -54 -36 -67 -44 -12 -8 -53
-33 -91 -55 -37 -22 -77 -45 -88 -52 -18 -10 -68 -35 -170 -85 -126 -61 -411
-163 -515 -183 -8 -2 -42 -10 -76 -19 -33 -8 -69 -17 -80 -19 -10 -1 -25 -6
-31 -10 -7 -5 -13 -4 -13 2 0 7 -8 7 -23 2 -12 -5 -45 -12 -72 -15 -28 -4 -59
-9 -70 -12 -11 -2 -45 -6 -75 -8 -30 -3 -84 -8 -119 -11 -125 -14 -612 -12
-686 2 -38 7 -71 13 -71 13 -1 0 -4 -20 -6 -44 -6 -47 -25 -75 -56 -81 -16 -3
-18 3 -16 45 3 40 0 49 -16 53 -11 3 -23 1 -26 -4 -3 -5 -10 -7 -15 -4 -5 4
-9 0 -9 -7 0 -7 -12 1 -28 18 -20 22 -55 39 -137 66 -61 20 -121 39 -135 42
-261 53 -365 86 -522 163 -114 56 -252 133 -256 144 -2 5 -8 9 -14 9 -5 0 -29
13 -53 30 -24 16 -46 30 -50 30 -3 0 -11 5 -18 10 -7 6 -73 54 -147 106 -74
52 -143 105 -154 117 -10 12 -21 21 -25 20 -3 -1 -21 11 -39 27 -17 15 -32 26
-32 24 0 -2 -12 7 -27 20 -16 13 -50 42 -78 65 -27 22 -59 49 -70 58 -67 59
-124 103 -133 103 -11 0 -249 -147 -269 -167 -7 -6 -26 -17 -43 -25 -16 -7
-30 -16 -30 -20 0 -5 -7 -8 -15 -8 -8 0 -15 -4 -15 -10 0 -5 -5 -10 -12 -10
-6 0 -26 -11 -44 -25 -18 -14 -36 -25 -40 -25 -4 0 -22 -11 -40 -25 -18 -14
-35 -25 -38 -25 -4 0 -29 -16 -57 -36 -33 -23 -59 -34 -76 -32 -21 3 -3 18
109 98 73 51 135 98 136 102 2 4 10 8 17 8 7 0 15 3 17 8 2 4 35 30 73 57 39
27 72 53 73 57 2 4 8 8 12 8 5 0 39 22 76 50 37 27 70 50 74 50 4 0 10 7 14
15 5 13 -31 62 -120 165 -12 14 -47 57 -78 95 -32 39 -62 77 -69 85 -7 8 -23
31 -37 50 -13 19 -35 46 -47 60 -13 14 -23 28 -23 32 0 3 -6 13 -13 20 -34 35
-218 321 -259 403 -8 17 -27 53 -41 80 -15 28 -32 64 -38 80 -26 65 -60 161
-64 182 -9 40 -75 177 -97 200 -13 14 -17 26 -12 35 13 20 14 38 2 38 -6 0 -8
6 -5 13 7 19 -29 96 -48 103 -14 6 -14 8 0 24 8 9 13 19 11 21 -2 2 -7 31 -11
64 -3 33 -8 74 -10 90 -7 53 -17 149 -21 195 -1 25 -3 45 -4 45 -1 0 -4 20 -5
45 -2 25 -4 45 -5 45 -1 0 -3 19 -5 41 -2 23 -6 64 -10 90 -4 27 -7 137 -8
244 0 113 -4 200 -10 208 -19 25 -44 13 -56 -27 -15 -53 -87 -133 -115 -129
-12 2 -21 8 -22 13 -3 34 -19 65 -37 72 -12 4 -59 8 -105 8 l-83 2 -35 -37
c-34 -36 -38 -37 -75 -29 -22 5 -45 10 -52 12 -12 2 -13 -18 -3 -63 12 -50 14
-110 5 -116 -15 -9 -78 -17 -127 -16 -60 1 -74 15 -70 71 l3 46 75 -1 76 0 -2
27 c-1 15 -13 39 -27 53 l-25 25 -53 -46 c-30 -24 -64 -53 -76 -64 -22 -18
-23 -24 -23 -209 l0 -191 27 -25 c22 -20 33 -24 73 -20 68 7 101 16 137 40 34
22 63 73 63 109 0 17 6 23 24 25 47 4 33 -55 -36 -143 -54 -68 -66 -88 -62
-99 3 -8 29 -17 57 -20 99 -13 101 -16 122 -106 13 -60 70 -176 92 -189 9 -4
11 -11 6 -14 -4 -3 -26 10 -48 29 -118 104 -134 62 -22 -59 53 -57 52 -53 9
-82 -40 -26 -78 -27 -109 -2 -7 5 -13 6 -13 3 0 -4 -13 2 -29 13 -32 23 -51
78 -32 91 13 7 4 40 -11 40 -12 0 -102 61 -106 72 -2 4 -8 8 -13 8 -6 0 -27
11 -47 25 -58 40 -64 20 -36 -117 22 -110 32 -163 38 -203 2 -11 9 -38 14 -60
12 -43 22 -88 27 -121 1 -11 12 -55 24 -98 12 -43 19 -82 16 -87 -4 -5 -1 -9
4 -9 6 0 11 -7 11 -16 0 -43 94 -304 138 -384 29 -51 36 -59 75 -85 19 -12 27
-24 24 -37 -7 -24 40 -151 99 -268 26 -52 50 -97 53 -100 3 -3 17 -26 31 -53
13 -26 28 -47 32 -47 3 0 10 -10 14 -23 4 -12 20 -38 35 -58 16 -20 29 -41 29
-47 0 -6 3 -12 8 -14 4 -1 38 -46 77 -98 38 -52 72 -97 75 -100 3 -3 39 -48
81 -100 134 -168 370 -408 574 -585 91 -79 260 -213 307 -245 21 -14 38 -28
38 -32 0 -5 5 -8 11 -8 6 0 28 -13 48 -28 39 -32 231 -154 302 -194 24 -14 60
-34 79 -45 48 -27 267 -137 310 -156 19 -8 76 -32 125 -52 50 -20 99 -41 110
-46 49 -21 225 -78 225 -72 0 3 6 1 13 -5 11 -10 87 -33 172 -53 52 -12 70
-17 70 -19 0 -1 9 -3 20 -5 11 -2 63 -13 115 -24 52 -12 111 -23 130 -26 19
-3 46 -7 60 -10 14 -3 45 -8 70 -11 25 -3 56 -8 70 -10 67 -10 110 -14 170
-19 36 -2 106 -7 155 -11 177 -13 515 -8 710 11 81 8 141 15 170 20 33 6 70
12 129 21 21 3 48 8 60 10 11 3 31 7 44 10 12 2 33 6 47 9 14 3 37 7 53 10 15
3 41 10 57 15 17 5 41 11 55 14 14 2 49 11 78 20 28 9 76 23 105 32 28 9 60
18 69 19 9 2 25 8 36 14 11 6 22 7 26 4 3 -3 6 -1 6 5 0 7 3 11 8 10 17 -5
253 89 404 161 60 28 109 51 110 50 3 0 127 80 188 121 112 75 196 135 198
142 2 4 10 8 18 8 8 0 14 5 14 10 0 6 4 10 10 10 5 0 18 6 27 14 10 8 88 70
173 137 280 221 514 441 694 653 22 27 48 56 57 65 8 9 33 39 54 66 21 28 44
55 49 60 6 6 16 18 21 26 14 22 162 231 175 246 5 7 10 17 10 23 0 5 3 10 8
10 4 0 12 10 18 23 6 12 29 52 52 89 23 36 60 102 82 145 23 43 45 82 51 88 5
5 9 17 9 26 0 10 3 19 8 21 6 3 56 104 58 117 0 3 9 26 21 51 63 136 155 401
188 540 2 8 11 47 20 85 22 95 25 105 31 145 3 19 9 51 14 70 4 19 11 56 14
81 4 25 9 57 11 70 2 13 7 49 10 79 3 30 8 87 13 125 13 131 7 955 -8 955 -4
0 -6 10 -6 23 -1 27 -15 131 -29 207 -4 19 -8 47 -10 62 -2 15 -6 36 -10 47
-3 11 -8 30 -10 43 -3 13 -7 34 -10 48 -3 14 -7 34 -9 46 -3 12 -14 54 -25 95
-12 41 -29 99 -37 129 -9 30 -18 62 -21 70 -4 8 -7 17 -8 20 -9 33 -67 195
-85 235 -4 11 -25 61 -45 110 -21 50 -42 96 -48 103 -5 6 -6 12 -1 12 5 0 5 4
-1 8 -5 4 -25 39 -43 77 -19 39 -41 83 -50 99 -11 22 -12 31 -4 34 16 5 15 39
-1 49 -17 10 -197 278 -197 293 0 5 -3 10 -8 10 -4 0 -18 18 -32 40 -14 22
-28 40 -32 40 -5 0 -8 6 -8 14 0 8 -3 16 -7 18 -5 2 -21 23 -38 48 -107 159
-375 472 -401 469 -5 0 -39 -31 -75 -67z m-7109 -2822 c-6 -11 -8 -20 -5 -20
3 0 1 -9 -5 -20 -7 -13 -21 -20 -40 -20 -38 0 -38 6 2 47 37 38 65 46 48 13z
m274 -466 c22 -8 20 -21 -4 -27 -22 -6 -35 7 -25 23 7 12 8 12 29 4z m193 -37
c-5 -16 -47 -19 -47 -3 0 8 11 14 25 14 14 0 24 -5 22 -11z m3137 -3051 c20
-19 36 -37 36 -39 0 -7 -130 -30 -136 -24 -8 8 39 97 52 97 6 0 28 -15 48 -34z
m171 -86 c18 -15 45 -63 45 -79 0 -16 -60 -54 -92 -57 -30 -4 -63 21 -52 38 3
4 7 26 9 49 2 23 9 47 15 54 13 16 54 13 75 -5z"/>
<path d="M6193 7146 l-23 -23 23 -21 c28 -27 32 -27 59 -2 20 18 20 20 4 45
-20 30 -34 30 -63 1z"/>
<path d="M4365 7104 l-29 -27 32 -29 c32 -28 33 -28 57 -11 35 26 38 43 14 70
-29 29 -40 29 -74 -3z"/>
<path d="M1005 7078 c1 -19 8 -24 41 -26 l39 -3 -29 26 c-36 31 -53 32 -51 3z"/>
<path d="M922 6992 c-53 -51 -93 -104 -221 -289 -85 -123 -122 -188 -224 -393
-106 -214 -227 -492 -240 -555 -2 -5 -5 -14 -8 -20 -8 -13 -67 -204 -72 -230
-2 -11 -9 -40 -16 -65 -15 -53 -20 -74 -27 -115 -3 -16 -9 -48 -14 -69 -14
-65 4 -69 125 -26 56 20 111 35 121 34 24 -3 70 -14 104 -26 8 -3 45 -14 81
-25 l65 -20 50 24 c80 40 81 40 79 -30 l-1 -60 64 -64 c35 -34 67 -63 72 -63
25 0 76 120 95 230 4 19 8 40 9 45 10 46 16 74 20 98 12 73 114 341 205 542
15 33 38 84 52 114 13 30 45 100 70 155 26 56 44 104 40 108 -3 3 -26 9 -51
12 -118 16 -123 17 -109 31 29 27 151 35 234 14 6 -1 18 1 27 5 16 7 15 11 -7
44 -30 45 -31 47 -3 49 57 5 121 52 175 128 22 31 26 49 24 99 -1 23 -5 27
-20 23 -12 -3 -22 1 -25 10 -6 16 4 15 97 -3 24 -5 27 -3 27 20 0 18 -6 26
-17 27 -10 0 -25 2 -33 5 -8 2 -30 7 -48 10 -28 6 -33 10 -30 32 3 22 8 26 35
27 41 1 51 11 31 31 -14 14 -23 15 -65 5 -26 -6 -57 -10 -68 -7 -11 2 -42 7
-68 10 -48 7 -49 7 -42 -16 9 -28 44 -58 62 -51 7 3 13 -2 13 -11 0 -20 -32
-21 -70 -1 -16 8 -38 16 -48 18 -11 2 -27 9 -36 16 -9 7 -16 11 -16 7 0 -17
-248 122 -300 169 -42 38 -56 37 -98 -3z m645 -242 c1 -11 -2 -20 -6 -20 -4 0
-16 9 -26 20 -18 19 -17 20 6 20 18 0 25 -6 26 -20z m-791 -1427 c19 -20 32
-38 29 -41 -6 -7 -75 58 -75 70 0 15 11 8 46 -29z"/>
<path d="M4162 6945 c1 -14 7 -25 13 -25 6 0 11 11 11 25 0 14 -6 25 -13 25
-8 0 -12 -10 -11 -25z"/>
<path d="M5225 6917 c-52 -28 -60 -82 -18 -122 15 -14 31 -25 35 -25 5 0 26
17 48 38 l41 38 -28 30 c-45 48 -56 54 -78 41z"/>
<path d="M1693 6822 l-23 -3 24 -24 c13 -13 34 -25 47 -27 20 -2 25 2 27 23 3
22 -1 27 -25 30 -15 2 -38 3 -50 1z"/>
<path d="M5309 6753 c-5 -104 -5 -103 36 -146 49 -51 77 -51 129 -1 34 33 41
49 37 82 -2 16 -71 82 -86 83 -106 6 -115 4 -116 -18z"/>
<path d="M3926 6715 c-16 -15 -24 -30 -20 -38 15 -24 49 -57 60 -57 14 0 23
72 12 100 -10 26 -19 25 -52 -5z"/>
<path d="M6632 6720 c-25 -21 -35 -50 -23 -69 12 -19 73 36 69 62 -4 28 -19
30 -46 7z"/>
<path d="M2510 6695 c-33 -35 -33 -49 0 -78 l28 -25 23 24 c31 34 31 48 0 78
l-27 26 -24 -25z"/>
<path d="M5675 6502 c-4 -12 -8 -12 -21 -1 -13 10 -19 8 -40 -12 -22 -22 -25
-34 -26 -102 l-1 -77 53 -50 c29 -28 62 -50 74 -50 40 0 113 65 137 122 11 26
10 35 -6 65 -24 43 -88 113 -106 114 -8 1 -24 3 -36 4 -12 1 -24 -4 -28 -13z"/>
<path d="M5254 6390 c1 -28 20 -30 24 -2 2 14 -2 22 -11 22 -8 0 -14 -9 -13
-20z"/>
<path d="M3252 6162 c-18 -15 -32 -34 -32 -42 0 -14 41 -60 53 -60 3 0 20 15
39 34 32 32 33 36 19 53 -35 42 -45 44 -79 15z"/>
<path d="M3043 6110 c-20 -21 -29 -39 -27 -56 2 -26 90 -124 110 -124 20 0 64
48 64 70 0 11 -4 20 -8 20 -5 0 -13 9 -18 19 -12 26 -75 101 -84 101 -4 0 -21
-14 -37 -30z"/>
<path d="M5365 5920 c-6 -10 1 -27 36 -90 31 -55 30 -55 61 -20 31 37 32 33
-30 97 -24 24 -56 30 -67 13z"/>
<path d="M2680 5735 c-16 -19 -2 -106 17 -112 6 -2 29 14 51 35 l40 40 -27 26
c-31 29 -62 33 -81 11z"/>
<path d="M2510 5648 l-45 -23 -3 -63 c-3 -62 -2 -64 36 -101 31 -30 47 -38 81
-39 47 -2 68 6 123 50 39 31 41 44 14 96 -20 38 -106 102 -138 102 -13 0 -44
-10 -68 -22z"/>
<path d="M5019 4773 c-130 -133 -179 -179 -179 -167 0 5 -134 -62 -156 -78
-17 -12 0 -85 24 -106 19 -17 28 -45 37 -125 3 -21 10 -47 15 -58 6 -10 8 -19
6 -19 -3 0 -1 -11 4 -25 5 -14 12 -36 14 -48 8 -39 104 -256 122 -276 3 -3
123 34 159 49 11 5 31 12 45 16 14 4 60 41 102 84 l77 77 -32 31 c-30 30 -30
32 -13 51 17 18 56 19 56 0 0 -14 30 -10 31 4 7 108 40 187 79 187 17 0 11 18
-12 40 -25 23 -39 25 -56 8 -21 -21 -13 6 15 46 l26 39 -27 86 c-64 201 -136
321 -195 321 -4 0 -68 -62 -142 -137z m-45 -106 c-3 -33 -4 -37 -14 -37 -6 0
-9 14 -8 30 1 17 7 29 13 27 5 -2 9 -11 9 -20z m156 -623 l0 -24 -20 20 c-22
22 -19 43 5 33 8 -3 15 -16 15 -29z"/>
<path d="M4647 4176 c-21 -19 -24 -30 -22 -67 2 -24 6 -51 8 -59 2 -8 7 -28
12 -45 19 -74 54 -116 89 -109 32 6 37 25 32 109 -8 129 -24 179 -59 189 -32
8 -32 8 -60 -18z"/>
<path d="M4107 3864 c-184 -184 -304 -311 -301 -319 6 -14 500 -510 509 -510
4 0 114 102 396 369 91 86 92 89 74 170 -14 68 -94 193 -177 281 l-38 40 0
-37 c0 -40 -13 -50 -47 -37 -13 5 -23 6 -23 4 0 -3 -9 4 -20 15 -22 22 -64
136 -55 151 4 5 14 9 24 9 24 0 39 18 46 58 4 27 -1 38 -31 72 -20 22 -40 40
-43 40 -4 0 -145 -138 -314 -306z"/>
<path d="M5605 4100 c-34 -37 -66 -113 -63 -152 2 -40 16 -51 68 -53 25 0 85
28 96 46 10 17 -58 179 -75 179 -4 0 -16 -9 -26 -20z"/>
<path d="M4778 3819 c-3 -46 0 -54 35 -92 20 -23 45 -54 54 -69 9 -15 23 -30
31 -33 9 -3 58 39 130 112 84 84 112 118 100 121 -9 2 -29 -3 -45 -11 -15 -8
-52 -22 -82 -32 -29 -9 -65 -24 -80 -31 -56 -29 -73 -18 -96 64 -4 12 -14 22
-25 22 -15 0 -19 -9 -22 -51z"/>
<path d="M5850 3670 c-19 -10 -42 -22 -50 -26 -61 -27 -119 -57 -125 -62 -4
-4 -12 -7 -18 -7 -8 0 -12 -22 -11 -66 3 -129 77 -209 183 -196 65 7 118 49
166 131 l26 44 -63 101 c-35 55 -65 100 -68 100 -3 0 -21 -9 -40 -19z"/>
</g>
</svg>
