<?xml version="1.0" encoding="utf-8"?>
<!-- Generator: Adobe Illustrator 20.1.0, SVG Export Plug-In . SVG Version: 6.00 Build 0)  -->
<svg version="1.1" id="Layer_1" xmlns="http://www.w3.org/2000/svg" xmlns:xlink="http://www.w3.org/1999/xlink" x="0px" y="0px"
	 viewBox="0 0 214.7 216.6" style="enable-background:new 0 0 214.7 216.6;" xml:space="preserve">
<style type="text/css">
	.st0{fill:#00AEEF;}
</style>
<g>
	<path class="st0" d="M184.9,36.8c4.9,4.6,10.8,12.4,17.8,23.5h0.6V61l-0.6,0.6c8,15,12.1,30.9,12.1,47.6v3.2
		c0,38-19.1,68.9-57.2,92.7c-14.9,7.6-30.6,11.4-47,11.4h-0.6c-32.6,0-60.6-12.9-83.9-38.7c-8.7-10.2-14-18.6-15.9-25.4l0.6-0.6
		c-3.2,0-6.6-9.9-10.2-29.9l0.6-0.6l5.7,3.8l-0.6,0.6v0.6c0,1.2,1.3,2,3.8,2.5l1.9-1.3l-3.2-3.8v-0.6h0.6l3.2,2.5v-0.6
		c-0.8,0-1.9-2.3-3.2-7l-3.8-0.6v-0.6l3.2-4.4v-1.3H7.6c0,3-2.1,4.4-6.4,4.4L0,114.3v-9.5l3.8-3.2l1.3,1.3v1.3H1.3v2.5l1.9,0.6
		l3.2-0.6v-1.3l-0.6-3.2h0.6l1.9,0.6l1.9-1.9H14c1.3,0,1.9,0.8,1.9,2.5c1.5,0,2.8-1.5,3.8-4.4h0.6l0.6,0.6v9.5l1.9,17.2l-0.6,0.6
		c0.8,0,1.5,1.3,1.9,3.8l-0.6,0.6c1,0,2.4,3.2,4.4,9.5c3.2,7.4,9.3,16.3,18.4,26.7v0.6l-15.9,11.4h1.3L48.3,169
		c16.3,14.2,29.2,21.8,38.7,22.9c5.9,1.4,8.9,2.6,8.9,3.8l0.6-0.6h1.3v2.5c1.3,0,1.9-1.1,1.9-3.2l3.2,0.6h9.5
		c30.4,0,54.5-15,72.4-45.1c5.9-11.6,8.9-24.1,8.9-37.5v-0.6c0-11.5-2.8-23.8-8.3-36.8h-0.6c-0.4,2.5-1.1,3.8-1.9,3.8l-1.9-1.3
		l-1.9,1.3l-1.3-1.3h-0.6c0,1.3-0.8,2.5-2.5,3.8v1.3l-3.8-1.3c-1.6,0-3.9,1.7-7,5.1c-0.8,0-1.3,0.8-1.3,2.5l-1.9-0.6l-27.3,26h-0.6
		c0-2.1,1.1-4.2,3.2-6.4l-1.3-4.4h0.6l2.5,1.9v-0.6c-5.5-4.9-8.3-9.1-8.3-12.7L146.7,75l-0.6-0.6v-1.3c1.7,0,2.5-0.4,2.5-1.3v-3.2
		h0.6l0.6,0.6h0.6V68h-1.3l-0.6,0.6c-2.1-0.8-3.2-2.1-3.2-3.8c0.8-1.9,1.7-3,2.5-3.2h1.9c1.3,0,1.9,1.3,1.9,3.8
		c1.3,0,1.9-0.8,1.9-2.5h1.3c0,1.3,0.4,1.9,1.3,1.9L184.9,36.8z M22.9,41.3h0.6c2.6,2.4,6.7,4.6,12.1,6.4h0.6V47
		c-1.3,0-1.9-0.4-1.9-1.3v-0.6l3.2,0.6l2.5-0.6l0.6,0.6v0.6h-1.9v1.3l3.2,0.6v1.3l-2.5-0.6h-0.6v0.6H40v1.9c-1.5,3-3.4,4.4-5.7,4.4
		l1.3,1.9l-0.6,0.6l-3.2-0.6l-3.2,0.6v0.6l4.4,0.6c-6.4,13.7-9.5,21.5-9.5,23.5c-1.1,5.9-2.1,8.9-3.2,8.9l-3.2-3.2v-3.2L14,87
		l-6.4-1.9L1.9,87l-0.6-0.6C3,76.3,7.4,64.9,14.6,52.1C19.1,45.4,21.8,41.8,22.9,41.3z M3.2,110.5h1.9l0.6-1.9H5.1L3.2,110.5z
		 M11.4,120.7v0.6h1.3v-0.6H11.4z M15.9,121.3v0.6h1.3v-0.6H15.9z M17.2,82.6v0.6l1.9,1.9v-0.6L17.2,82.6z M24.1,39.4h0.6l1.3,1.3
		h-1.9V39.4z M101.6,0h8.9l0.6,0.6l0.6-0.6h0.6c8.4,0.8,16.6,2.3,24.8,4.4v1.3l-16.5,17.2L108,22.2h-5.7c-7.3,0-14.1,0.8-20.3,2.5
		c0-0.8-0.8-1.3-2.5-1.3c0-1.3-0.4-1.9-1.3-1.9v1.9h-0.6l-1.3-1.3h0.6l-0.6-2.5h-0.6c0,3.4-0.8,5.1-2.5,5.1l-5.7-5.1l-0.6-0.6h-0.6
		l3.8,7h-0.6l0.6,0.6V28c0,0.7-4.4,3.5-13.3,8.3l-3.2-1.3l1.9,2.5c-5.5,4.7-8.7,7-9.5,7l-12.1-5.1l0.6,0.6c0,0.8,1.1,1.3,3.2,1.3
		l0.6,0.6v1.3l-12.7-3.8v-1.3c0-0.8,0.6-1.3,1.9-1.3l2.5,1.3h0.6v-0.6c-2.1-0.3-3.2-1-3.2-1.9C49.5,11.9,74.3,0,101.6,0z M31.8,38.7
		v0.6H33v-0.6H31.8z M34.9,33v0.6l2.5,0.6V33H34.9z M36.8,47.6l1.3,1.3v-1.3H36.8z M40.7,46.4h2.5v1.3h-1.3L40.7,46.4z M63.5,75
		c2.5,1.1,3.8,2.5,3.8,4.4l-2.5,1.9h-2.5l-1.9-1.9v-2.5C60.3,76.1,61.4,75.5,63.5,75z M62.3,48.9l1.3,1.3v0.6l-1.3,1.3L61,50.8v-0.6
		L62.3,48.9z M67.3,73.1l1.3,1.3l-1.9,1.9h-0.6l-0.6-2.5l0.6-0.6H67.3z M69.9,20.3V21h1.3v-0.6H69.9z M71.1,13.3l0.6,1.9l0.6-0.6
		h0.6l-0.6-1.9l-0.6,0.6H71.1z M73.7,14v1.3h0.6V14H73.7z M75.6,63.5h0.6l2.5,3.2v0.6l-1.3,1.3h-0.6l-2.5-2.5v-1.3L75.6,63.5z
		 M76.2,16.5l1.3,1.3v-1.3H76.2z M80.7,62.3h0.6l1.3,1.3l-1.9,1.9l-1.3-1.3v-0.6L80.7,62.3z M90.8,21l0.6,0.6h0.6v-1.9L90.8,21z
		 M95.3,29.9c1.8,0,3.3,0.8,4.4,2.5c-0.8,2.5-1.7,3.8-2.5,3.8c-3,0-4.4-1.1-4.4-3.2C93.6,31.1,94.4,30.1,95.3,29.9z M94,196.9
		l-1.3,2.5h0.6l3.2-0.6l-1.9-1.9H94z M109.3,112.4l1.9,1.9v1.3c0,0.8-0.6,1.3-1.9,1.3c0.6,3,1.5,4.4,2.5,4.4h1.3v-1.9
		c3.8,3.8,5.7,7.2,5.7,10.2L106.7,141L94,128.3v-0.6L109.3,112.4z M95.3,13.3v1.3h0.6v-1.3H95.3z M97.2,9.5l-1.3,1.3l0.6,1.9h1.3
		l0.6-2.5l-0.6-0.6H97.2z M97.8,48.3l0.6,0.6v2.5h-0.6l-1.3-1.3v-0.6L97.8,48.3z M97.8,199.5l-0.6,3.2l0.6,0.6h1.3l1.9-1.3
		c-0.6-1.7-1.3-2.5-1.9-2.5H97.8z M102.9,42.6h0.6v1.3h-0.6V42.6z M108.6,38.7h0.6l1.3,1.3l-1.3,1.3h-0.6l-1.3-1.3L108.6,38.7z
		 M115.6,111.8h0.6c1.3,0,1.9,2.3,1.9,7l-0.6,0.6h-0.6c-1.1,0-1.9-1.7-2.5-5.1v-1.3L115.6,111.8z M125.8,36.8h1.9v1.3h0.6l1.9-1.3
		l3.2,3.2c0,0.8-1.7,1.5-5.1,1.9l-3.2,3.8l0.6,0.6V47l-2.5,3.8h-0.6v-0.6l-0.6,0.6h-0.6c-3.1,0-5.2-2.5-6.4-7.6
		c0-2.5,1.7-3.8,5.1-3.8l3.2,1.9l2.5-3.8V36.8z M127.7,94c1.8,0,3.7,3.4,5.7,10.2l-1.3,1.9v0.6l0.6-0.6h0.6l1.3,1.3
		c-1.6,0-2.4,1.7-2.5,5.1h-0.6l-0.6-0.6h-0.6l-0.6,0.6v0.6l1.3,1.3l-3.8,3.8l-5.7,1.9c-2.5-4.5-4-9-4.4-13.3l-1.3-1.3v-1.9l5.1-2.5
		L127.7,94z M118.2,120.1h1.3c0,1.7,0.4,2.5,1.3,2.5l6.4-2.5v0.6l-5.7,5.7l-3.2-3.8V120.1z M121.3,24.8l3.8,1.3l3.2-1.3l0.6,0.6
		l-0.6,0.6v0.6l0.6,0.6c-0.4,2.5-1.5,3.8-3.2,3.8c-4.2-1.8-6.4-3.1-6.4-3.8v-0.6L121.3,24.8z M122.6,99.7v1.3h0.6v-1.3H122.6z
		 M123.2,16.5h1.3v-1.3L123.2,16.5z M125.8,115l1.3,1.3V115H125.8z M129.6,43.8h0.6l1.9,1.9l-1.9,1.9h-0.6l-1.3-1.3v-1.3L129.6,43.8
		z M130.2,6.4v1.3h0.6V6.4H130.2z M131.5,26l1.3,1.3l-1.3,1.3l-1.3-1.3L131.5,26z M130.2,56.5h0.6v1.3h-0.6V56.5z M131.5,47.6h3.2
		l1.9,1.9v1.3l-1.9,1.9h-1.3l-1.9-1.9V47.6z M134,68.6l1.9,1.9v0.6l-1.3,1.3l-1.9-3.2l0.6-0.6H134z M135.3,28.6l0.6,0.6v1.3H134
		v-0.6L135.3,28.6z M134.7,33h1.9v0.6l-1.3,1.3h-0.6V33z M139.8,113.7l1.9,4.4l-1.9,1.3h-1.3c-0.8,0-1.3-0.6-1.3-1.9
		C138.2,115,139,113.7,139.8,113.7z M139.8,54l0.6,0.6L141,54h0.6c1.3,0,2.5,1.3,3.8,3.8c-0.5,1.7-1.6,3-3.2,3.8H141l-2.5-2.5v-3.8
		L139.8,54z M146.1,124.5l3.2,5.1c-1.5,3-3.2,4.4-5.1,4.4c-3,0-4.4-2.1-4.4-6.4L146.1,124.5z M154.4,37.5l1.3,1.3l-1.3,1.3l-1.3-1.3
		L154.4,37.5z M165.2,48.3l0.6,0.6v0.6l-1.3,1.3h-0.6v-1.3L165.2,48.3z"/>
</g>
</svg>
